<svg version="1" xmlns="http://www.w3.org/2000/svg" width="346.667" height="346.667" viewBox="0 0 260.000000 260.000000"><path d="M1 130v129h258V1H1v129zm79.8-51.3c6.4 1.9 13.4 7.9 15.5 13.1 4.1 10.4 2.6 21.5-4.6 32.3-3.5 5.4-15.9 18-24.7 25.2l-4.5 3.7H77v-7h24v27H23v-18.6l7.7-6.4c11.2-9.4 28.3-26.7 32.1-32.4 3.2-4.9 4.3-11.3 2.4-14.3-1.2-1.9-6.3-3.4-9.5-2.7-3.3.7-5.7 5.2-5.7 10.9v3.5H26V84l3.6-1.5c14.5-6 38.2-7.8 51.2-3.8zm73.2 36.8V153h10v20h-57v-20h11V98h-15V84.2l11.8-2.7c6.4-1.4 12.2-2.8 12.7-3 .6-.2 6.7-.4 13.8-.4L154 78v37.5zM239 87v9l-5.6 9.7c-12.4 21.5-20.9 44.2-22.9 61.5l-.6 5.8H176v-4.9c0-13.1 10.9-38.2 27.4-63.4l1.8-2.7H188v11h-26V78h77v9z"/></svg>