<?xml version="1.0" encoding="UTF-8" standalone="no"?>
<!DOCTYPE svg PUBLIC "-//W3C//DTD SVG 1.1//EN" "http://www.w3.org/Graphics/SVG/1.1/DTD/svg11.dtd">
<svg width="100%" height="100%" viewBox="0 0 2755 221" version="1.1" xmlns="http://www.w3.org/2000/svg" xmlns:xlink="http://www.w3.org/1999/xlink" xml:space="preserve" style="fill-rule:evenodd;clip-rule:evenodd;stroke-linejoin:round;stroke-miterlimit:1.41421;">
    <g transform="matrix(4.16667,0,0,4.16667,0,0)">
        <path d="M32.902,5.496L35.385,3.451L36.51,4.502L30.861,9.308C25.41,5.157 18.216,1.407 11.029,3.451C9.169,4.071 6.673,5.692 6.569,8.035C6.464,12.232 14.788,14.365 14.788,14.365C14.788,14.365 25.9,17.764 30.484,22.039C32.587,23.946 33.273,26.997 32.715,30.033C29.244,44.946 8.645,37.738 3.712,33.672L1.146,36.269L0,35.278L5.735,29.461C10.328,32.875 11.314,33.482 15.521,35.26C26.401,39.358 29.969,33.021 26.966,29.028C21.949,23.078 13.322,24.083 7.187,19.808C3.966,17.516 1.673,14.11 2.232,10.021C2.603,6.117 6.587,2.637 10.039,1.358C17.86,-1.703 26.644,0.787 32.902,5.496Z" />
        <path d="M44.987,14.371C44.987,14.371 43.399,29.97 45.221,34.494C45.674,35.617 46.729,36.122 47.96,35.831C50.336,35.201 52.67,33.624 54.653,31.89L54.653,16.227L50.934,16.227L50.934,14.371L61.715,14.371L61.715,38.521L54.653,38.521L54.653,34.803C53.45,35.424 43.621,41.902 39.844,38.012C37.616,35.537 37.551,31.023 37.426,27.059C37.366,23.402 38.047,19.698 38.358,16.227L34.763,16.227L34.757,14.367L44.987,14.371Z" />
        <path d="M39.527,9.169C39.527,7.367 40.988,5.906 42.79,5.906C44.592,5.906 46.053,7.367 46.053,9.169C46.053,10.972 44.592,12.433 42.79,12.433C40.988,12.433 39.527,10.972 39.527,9.169Z" />
        <path d="M54.362,9.171C54.362,7.367 55.823,5.906 57.626,5.906C59.426,5.906 60.887,7.367 60.887,9.171C60.887,10.972 59.426,12.433 57.626,12.433C55.823,12.433 54.362,10.972 54.362,9.171Z" />
        <path d="M80.715,9.791L80.715,11.65L83.104,11.65L83.104,18.001C83.104,18.001 78.358,12.571 71.208,16.33C66.932,18.87 65.135,23.456 65.63,28.164C65.94,32.378 68.046,36.714 72.199,38.386C76.042,39.813 80.315,38.511 83.104,35.785L83.104,38.524L89.623,38.524L89.623,9.791L80.715,9.791ZM83.403,26.744C83.403,26.744 83.077,36.266 77.709,36.266C72.34,36.266 72.526,26.698 72.526,26.698C72.526,26.698 72.62,17.734 78.221,17.734C83.825,17.734 83.403,26.744 83.403,26.744Z" />
        <path d="M108.419,9.8L108.419,11.659L110.807,11.659L110.807,18.01C110.807,18.01 106.062,12.58 98.91,16.339C94.634,18.879 92.838,23.465 93.333,28.173C93.643,32.386 95.749,36.723 99.901,38.396C103.743,39.821 108.019,38.521 110.807,35.793L110.807,38.524L117.325,38.524L117.325,9.8L108.419,9.8ZM111.106,26.752C111.106,26.752 110.78,36.276 105.411,36.276C100.042,36.276 100.229,26.705 100.229,26.705C100.229,26.705 100.322,17.742 105.925,17.742C111.526,17.742 111.106,26.752 111.106,26.752Z" />
        <path d="M144.689,20.488L130.114,33.062C131.368,36.385 136.532,39.714 141.669,33.732L143.604,35.824C140.566,39.491 135.009,40.565 130.425,39.574C126.24,38.668 122.879,34.755 121.764,30.788C120.339,25.83 121.564,20.614 125.53,17.392C128.998,14.416 137.765,10.758 144.689,20.488ZM140.507,20.643C139.887,18.939 138.261,17.08 136.246,16.538C134.543,15.996 132.556,16.647 131.057,17.961C127.646,21.257 127.68,26.113 129.022,30.317L140.507,20.643Z" />
        <path d="M155.255,14.371C155.255,14.371 153.668,29.97 155.489,34.494C155.942,35.617 156.999,36.122 158.229,35.831C160.604,35.201 162.938,33.624 164.921,31.89L164.921,16.227L161.202,16.227L161.202,14.371L171.985,14.371L171.985,38.521L164.921,38.521L164.921,34.803C163.718,35.424 153.89,41.902 150.113,38.012C147.885,35.537 147.819,31.023 147.695,27.059C147.634,23.402 148.315,19.698 148.626,16.227L145.032,16.227L145.025,14.367L155.255,14.371Z" />
        <path d="M185.612,14.371L190.569,14.371L190.569,16.227L185.612,16.227L186.001,38.533L178.952,38.533L179.263,16.227L174.306,16.227L174.306,14.371L179.263,14.371L179.263,13.363C179.263,13.363 180.948,12.734 182.438,12.045C184.452,11.117 185.612,10.265 185.612,10.265L185.612,14.371Z" />
        <path d="M211.087,16.939C210.993,17.068 209.175,19.515 209.175,19.515C206.077,17.1 200.991,15.321 197.331,16.995C194.583,18.368 195.089,21.484 199.048,22.547C201.614,23.373 209.995,24.085 210.946,30.393C211.253,32.976 210.041,35.285 207.998,36.895C203.229,40.547 195.674,39.68 190.411,37.884C190.389,37.804 191.635,33.73 191.635,33.73C193.298,34.811 194.724,35.341 196.31,35.943C204.413,38.837 209.044,33.926 204.013,31.017C201.778,29.691 198.882,29.576 196.046,28.435C193.94,27.567 191.739,25.964 191.087,23.614C190.399,21.169 190.864,18.364 192.394,16.869C197.163,12.325 205.821,14.09 211.087,16.939Z" />
        <path d="M234.026,17.463L232.614,19.538C230.679,16.791 226.699,15.879 224.475,17.096C220.026,19.687 220.028,25.762 220.833,30.589C221.39,33.308 223.162,36.537 226.117,37.006C228.419,37.318 230.908,35.661 231.836,34.809L234.159,37.359C234.159,37.359 232.782,38.392 231.224,38.864C226.731,40.424 221.451,39.802 218.049,36.649C214.379,33.246 213.04,28.793 213.905,24.032C214.647,19.949 218.481,16.116 222.44,15C226.339,13.949 231.059,14.804 234.026,17.463Z" />
        <path d="M244.825,9.8L244.825,19.808C248.544,16.461 253.851,12.913 258.808,15.455C262.091,17.499 261.625,21.249 261.555,25.199C261.441,31.565 261.053,38.524 261.053,38.524L254.78,38.525C254.97,30.299 255.032,24.247 254.565,21.666C254.319,20.47 254.024,19.193 252.694,18.594C249.72,17.405 246.864,20.201 244.825,22.41L244.825,38.524L237.761,38.524L237.761,11.659L235.187,11.659L235.187,9.8L244.825,9.8Z" />
        <path d="M287.864,20.488L273.289,33.062C274.544,36.385 279.708,39.714 284.845,33.732L286.78,35.824C283.741,39.491 278.187,40.565 273.601,39.574C269.416,38.668 266.055,34.755 264.939,30.788C263.515,25.83 264.739,20.614 268.706,17.392C272.175,14.416 280.94,10.758 287.864,20.488ZM283.682,20.643C283.062,18.939 281.436,17.08 279.421,16.538C277.718,15.996 275.732,16.647 274.233,17.961C270.821,21.257 270.854,26.113 272.198,30.317L283.682,20.643Z" />
        <path d="M305.155,36.661C310.175,36.844 315.925,35.848 320.571,34.795C320.38,35.179 318.939,38.524 318.939,38.524L295.985,38.524L311.858,2.563C310.22,2.563 306.931,2.587 306.931,2.587C300.651,2.587 298.558,3.409 292.922,6.857L293.308,0.291L320.708,0.291L305.155,36.661Z" />
        <path d="M343.487,20.488L328.913,33.062C330.167,36.385 335.331,39.714 340.468,33.732L342.403,35.824C339.366,39.491 333.808,40.565 329.224,39.574C325.038,38.668 321.677,34.755 320.56,30.788C319.136,25.83 320.361,20.614 324.327,17.392C327.798,14.416 336.563,10.758 343.487,20.488ZM339.304,20.643C338.685,18.939 337.058,17.08 335.046,16.538C333.341,15.996 331.354,16.647 329.854,17.961C326.442,21.257 326.478,26.113 327.821,30.317L339.304,20.643Z" />
        <path d="M353.995,14.371L353.995,38.524L346.946,38.524L346.946,16.227L343.387,16.227L343.387,14.371L353.995,14.371Z" />
        <path d="M347.161,9.171C347.161,7.367 348.621,5.908 350.426,5.908C352.228,5.908 353.688,7.367 353.688,9.171C353.688,10.972 352.228,12.433 350.426,12.433C348.621,12.433 347.161,10.972 347.161,9.171Z" />
        <path d="M367.083,16.227L367.471,38.524L360.424,38.524L360.733,16.227L356.339,16.227L356.339,14.371L360.733,14.371L360.733,13.363C360.733,13.363 362.417,12.734 363.909,12.045C365.923,11.117 367.083,10.265 367.083,10.265L367.083,14.371L381.142,14.371C381.142,14.371 379.556,29.97 381.376,34.494C381.829,35.617 382.886,36.122 384.116,35.831C386.493,35.201 388.827,33.624 390.809,31.89L390.809,16.227L387.091,16.227L387.091,14.371L397.872,14.371L397.872,38.521L390.809,38.521L390.809,34.803C389.604,35.424 379.776,41.902 376.001,38.012C373.772,35.537 373.707,31.023 373.583,27.059C373.521,23.402 374.203,19.698 374.515,16.227L367.083,16.227Z" />
        <path d="M428.188,24.825C428.22,29.098 428.27,33.224 428.114,38.515C426.015,38.515 421.206,38.514 421.206,38.514C421.65,32.912 423.478,19.864 418.773,18.855C415.79,18.216 413.028,20.491 410.923,22.783L410.923,38.524L404.104,38.524L404.104,16.227L401.396,16.227L401.396,14.371L410.923,14.371L410.923,19.995C414.207,16.896 418.571,13.477 423.151,14.407C424.472,14.68 428.106,15.711 428.188,24.825Z" />
        <path d="M461.457,18.245C461.457,16.452 460.003,14.998 458.212,14.998C456.869,14.998 455.718,15.815 455.222,16.977C455.217,16.988 454.817,17.965 454.901,18.92C454.726,18.649 454.002,17.95 453.552,17.583C449.524,14.115 442.833,13.623 438.185,15.978C433.167,18.58 430.563,23.784 431.307,29.363C431.741,34.071 435.956,38.409 440.229,39.895C439.487,40.205 437.355,40.723 437.239,43.196C437.175,47.484 444.01,45.224 447.356,46.402C448.223,46.833 448.657,47.702 448.47,48.692C448.223,49.499 447.479,50.119 446.735,50.365C443.575,51.421 440.321,49.697 438.027,47.53L435.583,49.437C437.046,50.617 438.513,51.711 440.126,52.271C442.917,53.324 449.383,53.81 452.396,49.61C453.038,48.74 453.304,46.958 452.683,45.843C450.454,42.126 445.366,43.878 442.374,43.452C440.709,43.253 439.528,40.775 445.558,40.28C450.144,40.094 454.356,37.417 456.71,33.328C458.691,29.858 458.136,24.714 456.648,21.306C457.372,21.482 457.923,21.532 458.345,21.488C460.075,21.416 461.457,19.993 461.457,18.245ZM444.674,37.914C441.003,37.914 438.027,33.21 438.027,27.409C438.027,21.608 441.003,16.906 444.674,16.906C448.343,16.906 451.319,21.608 451.319,27.409C451.319,33.21 448.343,37.914 444.674,37.914Z" />
        <path d="M491.899,31.636C494.105,24.762 502.026,0.211 502.026,0.211L510.172,0.199L512.116,38.547L504.249,38.566C504.249,38.566 503.946,22.596 503.551,4.65C501.687,10.827 492.688,38.532 492.688,38.532L486.983,38.547C486.983,38.547 477.493,11.117 475.575,4.648C474.726,26.497 474.403,30.676 474.403,38.541L470.669,38.547C471.347,28.41 472.729,3.411 472.783,1.837L468.567,1.832L468.567,0.211L481.313,0.199L491.899,31.636Z" />
        <path d="M518.154,19.215C520.709,17.316 522.584,16.482 525.92,16.482C528.754,16.482 529.751,17.89 530.193,19.423C530.387,20.096 530.454,20.834 530.479,21.58L530.482,23.487C529.391,22.502 528.237,21.932 526.063,21.754C525.578,21.715 525.061,21.688 524.463,21.688C518.959,21.688 515.064,24.622 514.799,29.971L514.794,29.971C514.789,30.199 514.779,30.423 514.784,30.66C514.895,35.457 517.3,38.899 522.224,39.049C526.197,39.172 528.451,38.085 530.553,35.766L530.51,38.587L537.506,38.587L537.508,23.723C537.508,18.983 537.47,17.419 535.71,15.916C534.012,14.528 530.184,13.892 526.219,13.892C521.627,13.892 518.95,15.1 516.641,16.537L518.154,19.215ZM530.909,30.229C530.672,33.582 528.076,36.149 525.113,35.963C522.149,35.779 519.939,32.911 520.176,29.557C520.414,26.205 523.008,23.636 525.973,23.822C528.936,24.007 531.146,26.875 530.909,30.229Z" />
        <path d="M570.674,18.154C570.674,16.357 569.217,14.899 567.42,14.899C566.074,14.899 564.92,15.716 564.426,16.882C564.42,16.893 564.018,17.873 564.102,18.83C563.926,18.558 563.201,17.859 562.748,17.491C558.713,14.012 552.003,13.52 547.344,15.881C542.313,18.489 539.701,23.707 540.447,29.298C540.883,34.02 545.107,38.369 549.393,39.859C548.648,40.17 546.512,40.689 546.395,43.167C546.33,47.468 553.182,45.202 556.537,46.382C557.406,46.816 557.844,47.685 557.656,48.68C557.406,49.488 556.662,50.108 555.916,50.354C552.748,51.414 549.484,49.686 547.186,47.514L544.734,49.424C546.201,50.608 547.672,51.706 549.287,52.264C552.09,53.32 558.57,53.808 561.588,49.599C562.234,48.725 562.5,46.94 561.879,45.823C559.643,42.096 554.543,43.852 551.545,43.426C549.874,43.227 548.689,40.741 554.736,40.247C559.332,40.059 563.555,37.374 565.916,33.274C567.904,29.796 567.345,24.639 565.854,21.224C566.577,21.4 567.131,21.45 567.555,21.404C569.289,21.334 570.674,19.905 570.674,18.154ZM553.85,37.872C550.168,37.872 547.186,33.158 547.186,27.34C547.186,21.525 550.168,16.81 553.85,16.81C557.529,16.81 560.51,21.525 560.51,27.34C560.51,33.158 557.529,37.872 553.85,37.872Z" />
        <path d="M574.076,19.215C576.632,17.316 578.507,16.482 581.842,16.482C584.677,16.482 585.674,17.89 586.115,19.423C586.309,20.096 586.377,20.834 586.4,21.58L586.405,23.487C585.313,22.502 584.16,21.932 581.984,21.754C581.5,21.715 580.983,21.688 580.386,21.688C574.881,21.688 570.986,24.622 570.721,29.971L570.717,29.971C570.712,30.199 570.701,30.423 570.707,30.66C570.817,35.457 573.223,38.899 578.146,39.049C582.119,39.172 584.373,38.085 586.475,35.766L586.433,38.587L593.428,38.587L593.43,23.723C593.43,18.983 593.392,17.419 591.633,15.916C589.935,14.528 586.106,13.892 582.141,13.892C577.549,13.892 574.873,15.1 572.563,16.537L574.076,19.215ZM586.832,30.229C586.594,33.582 583.998,36.149 581.035,35.963C578.072,35.779 575.861,32.911 576.099,29.557C576.336,26.205 578.932,23.636 581.896,23.822C584.857,24.007 587.069,26.875 586.832,30.229Z" />
        <path d="M617.445,14.362L606.621,36.902L609.111,36.912C611.458,36.865 615.301,36.249 618.34,34.797L616.842,38.555C612.783,38.555 603.039,38.543 598.634,38.543L609.436,16.249L604.736,16.249C602.007,16.249 598.706,17.609 595.932,19.892L596.836,14.327L617.445,14.362Z" />
        <path d="M630.116,14.362L630.116,38.573L623.056,38.573L623.056,16.225L619.491,16.225L619.491,14.362L630.116,14.362Z" />
        <path d="M623.271,9.154C623.271,7.346 624.734,5.884 626.541,5.884C628.347,5.884 629.81,7.346 629.81,9.154C629.81,10.957 628.347,12.421 626.541,12.421C624.734,12.421 623.271,10.957 623.271,9.154Z" />
        <path d="M660.317,24.829C660.351,29.114 660.398,33.245 660.244,38.549C658.138,38.549 653.317,38.552 653.317,38.552C653.763,32.934 655.595,19.853 650.881,18.843C647.888,18.202 645.12,20.483 643.009,22.781L643.009,38.571L636.175,38.571L636.175,16.209L633.456,16.209L633.456,14.346L643.009,14.346L643.009,19.986C646.301,16.878 650.677,13.452 655.27,14.383C656.593,14.657 660.235,15.691 660.317,24.829Z" />
    </g>
</svg>
