<?xml version="1.0" encoding="UTF-8" standalone="no"?>
<!DOCTYPE svg PUBLIC "-//W3C//DTD SVG 1.1//EN" "http://www.w3.org/Graphics/SVG/1.1/DTD/svg11.dtd">
<svg width="100%" height="100%" viewBox="0 0 513 121" version="1.1" xmlns="http://www.w3.org/2000/svg" xmlns:xlink="http://www.w3.org/1999/xlink" xml:space="preserve" style="fill-rule:evenodd;clip-rule:evenodd;stroke-linejoin:round;stroke-miterlimit:1.41421;">
    <g transform="matrix(4.16667,0,0,4.16667,0,0)">
        <path d="M10.931,6.295L10.93,10.279L7.576,10.279L7.575,27.763L3.331,27.762L3.331,10.278L0,10.279L0,6.295L10.931,6.295Z" style="fill:white;fill-rule:nonzero;"/>
        <path d="M17.109,25.695L17.109,15.789L17.168,15.787L20.897,25.697L25.367,25.695L21.64,15.933C23.744,14.762 24.683,12.741 24.683,10.38C24.684,4.513 19.841,4.231 17.138,4.232L12.869,4.232L12.869,25.694L17.109,25.695ZM17.11,7.735L17.679,7.735C19.814,7.619 20.553,8.873 20.555,10.41C20.554,12.177 19.789,13.483 17.85,13.484L17.11,13.455L17.11,7.735Z" style="fill:white;fill-rule:nonzero;"/>
        <path d="M31.654,5.058L26.676,26.52L30.888,26.522L31.654,22.906L35.953,22.905L36.752,26.521L41.279,26.521L36.126,5.059L31.654,5.058ZM35.329,19.546L32.34,19.545L33.253,13.825L33.705,10.58L33.762,10.58L34.245,13.825L35.329,19.546Z" style="fill:white;fill-rule:nonzero;"/>
        <path d="M43.458,3.408L46.018,13.709C46.389,14.934 46.53,16.161 46.789,17.38L46.846,17.38C47.075,16.126 47.159,14.908 47.502,13.655L50.09,3.409L54.528,3.41L48.582,24.869L45.108,24.867L38.904,3.408L43.458,3.408Z" style="fill:white;fill-rule:nonzero;"/>
        <path d="M64.808,4.232L64.806,8.217L60.51,8.218L60.511,12.887L64.291,12.886L64.292,16.871L60.509,16.872L60.509,21.71L64.867,21.711L64.867,25.693L56.27,25.695L56.269,4.232L64.808,4.232Z" style="fill:white;fill-rule:nonzero;"/>
        <path d="M71.668,7.536L71.668,25.015L76.109,25.015L76.109,28.999L67.428,29L67.427,7.535L71.668,7.536Z" style="fill:white;fill-rule:nonzero;"/>
        <path d="M87.68,0.927L80.334,18.407L87.084,18.408L87.082,22.395L74.16,22.395L81.301,4.916L75.072,4.916L75.072,0.927L87.68,0.927Z" style="fill:white;fill-rule:nonzero;"/>
        <path d="M96.39,4.302C92.605,4.302 88.845,7.321 88.847,15.38C88.845,23.433 92.606,26.449 96.39,26.451C100.178,26.45 103.936,23.434 103.934,15.378C103.934,7.32 100.178,4.301 96.39,4.302ZM93.375,15.379C93.376,13.469 93.574,8.23 96.391,8.23C99.207,8.229 99.407,13.469 99.408,15.378C99.41,17.084 99.209,22.523 96.39,22.525C93.574,22.524 93.377,17.087 93.375,15.379Z" style="fill:white;fill-rule:nonzero;"/>
        <path d="M112.961,3.065C109.17,3.065 105.415,6.082 105.416,14.136C105.416,22.195 109.172,25.215 112.959,25.215C116.744,25.215 120.504,22.195 120.501,14.138C120.502,6.082 116.742,3.065 112.961,3.065ZM109.941,14.138C109.941,12.231 110.14,6.994 112.963,6.995C115.775,6.995 115.979,12.232 115.979,14.137C115.977,15.846 115.777,21.283 112.961,21.284C110.139,21.284 109.939,15.845 109.941,14.138Z" style="fill:white;fill-rule:nonzero;"/>
        <path d="M120.569,2.963C120.909,2.963 121.145,2.807 121.145,2.533L121.145,2.52C121.145,2.265 120.936,2.102 120.589,2.102L119.878,2.102L119.878,2.963L120.569,2.963ZM119.519,1.775L120.603,1.775C120.909,1.775 121.164,1.873 121.32,2.03C121.438,2.141 121.517,2.304 121.517,2.5L121.517,2.513C121.517,2.905 121.256,3.14 120.89,3.225L121.641,4.198L121.196,4.198L120.498,3.284L120.484,3.284L119.878,3.284L119.878,4.198L119.519,4.198L119.519,1.775ZM122.595,3.055L122.595,3.042C122.595,1.86 121.674,0.894 120.452,0.894C119.225,0.894 118.297,1.873 118.297,3.055L118.297,3.068C118.297,4.25 119.218,5.217 120.439,5.217C121.667,5.217 122.595,4.237 122.595,3.055ZM118.081,3.068L118.081,3.055C118.081,1.769 119.126,0.691 120.452,0.691C121.778,0.691 122.81,1.755 122.81,3.042L122.81,3.055C122.81,4.342 121.765,5.419 120.439,5.419C119.113,5.419 118.081,4.354 118.081,3.068Z" style="fill:white;fill-rule:nonzero;"/>
    </g>
</svg>
